<svg width="194" height="78" fill="none" xmlns="http://www.w3.org/2000/svg"><g clip-path="url('#clip0_2_10')"><g class="hideable" fill="#5BA6D8"><path d="M191.178 57.893c-1.346 8.106-4.23 12.063-6.376 12.063-3.989 0-2.395-7.372-1.656-12.063l2.208-13.77-.428-.425h-18.085l-.124.912c2.884 0 2.083 4.451 1.78 6.275l-1.104 6.947c-.015.115-.039.24-.054.363-1.392 7.897-5.07 11.823-7.915 11.823-2.512 0-4.355-2.929-3.437-8.779l2.146-13.53h7.845l.676-4.019h-7.907l1.718-10.903c-.186-.185-.186-.425-.427-.425-9.564 0-11.096 11.336-19.804 11.336h-.249l-.427 2.867h3.001l-1.889 11.923c-1.392 7.697-4.176 11.475-6.267 11.475-2.636 0-3.126-4.45-2.271-7.92l1.657-6.823c1.718-7.133-2.885-12.982-10.971-12.982-5.334 0-11.407 3.531-14.719 12.062l1.594-10.177-.49-.425H91.118l-.124.912c2.394 0 2.394 2.62 1.78 6.275l-1.166 7.294c-1.804 9.969-8.895 14.698-15.45 14.698-8.272 0-11.647-5.548-11.958-11.761.918.788 4.168 1.831 7.97 1.831 16.856 0 20.293-20.779.49-20.779-10.116 0-21.584 5.85-23.544 17.912-1.47 8.956 4.844 17.912 20.107 17.912 8.77 0 16.056-2.828 20.597-8.654l-1.221 7.673h16.857l2.083-12.735c1.656-10.177 6.073-13.77 8.887-13.77 1.594 0 2.512 1.399 1.657 4.69l-1.843 6.886c-1.96 7.372-1.407 15.902 9.26 15.902 6.827 0 11.593-3.84 14.586-9.326 1.073 5.192 4.852 9.326 11.531 9.326 5.956 0 11.033-2.287 14.587-8.4.365 4.7 2.596 8.4 9.695 8.4 10.792 0 16.429-9.566 18.085-20.106h-2.822l.016.015ZM74.199 44.973c4.292 0 2.45 13.77-9.991 13.77.49-6.947 5.334-13.77 9.991-13.77Z"/><path d="M177.874 40.955c5.334 0 8.219-3.292 8.584-6.638.365-3.292-1.718-6.645-6.624-6.645-5.521 0-8.522 3.531-9.012 7.008-.428 3.169 1.897 6.275 7.052 6.275Z"/></g><path d="M84.198 20.74C83.382 7.905 63.874-1.314 40.633.155 17.385 1.615-.793 13.206.023 26.04c.482 7.565 7.465 13.87 17.876 17.48l4.09 33.25L53.384 43.8C72.59 40.484 84.92 32.029 84.198 20.74Z" fill="#5BA6D8"/><path d="M37.275 54.818 34.888 36.31c-8.032-2.334-14.587-6.329-16.546-13.314-2.916-10.394 8.708-18.67 28.037-19.481 16.25-.68 33.434 7.295 34.546 15.4C82.543 30.679 66.69 37.92 53.5 40.353c-.433.08-.863.155-1.29.224L37.276 54.818Z" fill="#fff"/></g><defs><clipPath id="clip0_2_10"><path fill="#fff" d="M0 0h194v78H0z"/></clipPath></defs></svg>