<svg width="32" height="32" fill="none" xmlns="http://www.w3.org/2000/svg"><path d="M11 21v1-1Zm10 0v1-1ZM2 16C2 8.268 8.268 2 16 2V0C7.163 0 0 7.163 0 16h2ZM16 2c7.732 0 14 6.268 14 14h2c0-8.837-7.163-16-16-16v2Zm0 28C8.268 30 2 23.732 2 16H0c0 8.837 7.163 16 16 16v-2Zm14-14c0 7.732-6.268 14-14 14v2c8.837 0 16-7.163 16-16h-2Zm-10-5a4 4 0 0 1-4 4v2a6 6 0 0 0 6-6h-2Zm-4 4a4 4 0 0 1-4-4h-2a6 6 0 0 0 6 6v-2Zm-4-4a4 4 0 0 1 4-4V5a6 6 0 0 0-6 6h2Zm4-4a4 4 0 0 1 4 4h2a6 6 0 0 0-6-6v2Zm-5 15h10v-2H11v2Zm10 0c1.106 0 2.086.626 2.831 1.662.75 1.042 1.169 2.384 1.169 3.518h2c0-1.564-.557-3.313-1.546-4.686C24.462 21.114 22.941 20 21 20v2ZM7 27.18c0-1.134.42-2.476 1.169-3.518C8.914 22.626 9.894 22 11 22v-2c-1.941 0-3.462 1.114-4.454 2.494C5.557 23.867 5 25.616 5 27.18h2Z" fill="#FE938C"/></svg>