<?xml version="1.0" encoding="utf-8"?>
<!-- Generator: Adobe Illustrator 27.0.0, SVG Export Plug-In . SVG Version: 6.00 Build 0)  -->
<svg version="1.2" baseProfile="tiny" id="a" xmlns="http://www.w3.org/2000/svg" xmlns:xlink="http://www.w3.org/1999/xlink"
	 x="0px" y="0px" viewBox="0 0 18 36" overflow="visible" xml:space="preserve">
<path fill="none" stroke="#FE938C" stroke-width="2" d="M9,10.7c1.1,0,2-0.9,2-1.9s-0.9-1.9-2-1.9S7,7.7,7,8.7S7.9,10.7,9,10.7z"/>
<path fill="none" stroke="#FE938C" stroke-width="2" d="M9,14.4c6.1,0.1,8-5.6,8-5.6S15.2,3,9,3S1,8.8,1,8.8S2.9,14.3,9,14.4z"/>
<path fill="none" stroke="#FE938C" stroke-width="2" stroke-linecap="round" d="M16,33L3.5,20.5 M7.5,25.5C7.2,25.8,7,26.2,7,26.7
	c0,1.1,0.9,2,2,2c0.5,0,1-0.2,1.3-0.5 M16,28.7c0.7-1,1-1.9,1-1.9S15.2,21,9,21c-0.4,0-0.7,0-1,0 M13.5,31.2
	c-1.1,0.7-2.6,1.2-4.5,1.2c-6.1-0.1-8-5.6-8-5.6s0.9-2.8,3.5-4.5"/>
</svg>
