<svg width="194" height="78" viewBox="0 0 194 78" fill="none" xmlns="http://www.w3.org/2000/svg">
<g clip-path="url(#clip0_2_10)">
<path d="M191.178 57.8934C189.832 65.9994 186.948 69.9558 184.802 69.9558C180.813 69.9558 182.407 62.5839 183.146 57.8934L185.354 44.1232L184.926 43.6982H166.841L166.717 44.6101C169.601 44.6101 168.8 49.061 168.497 50.8847L167.393 57.8316C167.378 57.9475 167.354 58.0711 167.339 58.1948C165.947 66.0921 162.269 70.0176 159.424 70.0176C156.912 70.0176 155.069 67.089 155.987 61.2393L158.133 47.7087H165.978L166.654 43.6905H158.747L160.465 32.7872C160.279 32.6017 160.279 32.3622 160.038 32.3622C150.474 32.3622 148.942 43.6982 140.234 43.6982H139.985L139.558 46.5651H142.559L140.67 58.4884C139.278 66.1849 136.494 69.9635 134.403 69.9635C131.767 69.9635 131.277 65.5126 132.132 62.043L133.789 55.2197C135.507 48.0874 130.904 42.2378 122.818 42.2378C117.484 42.2378 111.411 45.7692 108.099 54.3002L109.693 44.1232L109.203 43.6982H91.118L90.9936 44.6101C93.3884 44.6101 93.3884 47.2296 92.7742 50.8847L91.6079 58.1793C89.804 68.1476 82.713 72.8767 76.1585 72.8767C67.8856 72.8767 64.5112 67.3285 64.2001 61.1157C65.1176 61.9039 68.3677 62.9471 72.1698 62.9471C89.0265 62.9471 92.4631 42.1682 72.6596 42.1682C62.544 42.1682 51.0755 48.0178 49.1162 60.0802C47.6467 69.0362 53.9602 77.9923 69.223 77.9923C77.9934 77.9923 85.2788 75.164 89.8196 69.3376L88.5988 77.0109H105.456L107.539 64.2762C109.195 54.0993 113.612 50.506 116.426 50.506C118.02 50.506 118.938 51.9047 118.083 55.1965L116.24 62.0816C114.28 69.4535 114.833 77.9845 125.5 77.9845C132.327 77.9845 137.093 74.144 140.086 68.6576C141.159 73.8504 144.938 77.9845 151.617 77.9845C157.573 77.9845 162.65 75.6972 166.204 69.5849C166.569 74.2831 168.8 77.9845 175.899 77.9845C186.691 77.9845 192.328 68.4181 193.984 57.8779H191.162L191.178 57.8934ZM74.1991 44.9732C78.491 44.9732 76.6483 58.7434 64.2079 58.7434C64.6978 51.7965 69.5417 44.9732 74.1991 44.9732Z" fill="#5BA6D8"/>
<path d="M177.874 40.955C183.208 40.955 186.093 37.6632 186.458 34.3172C186.823 31.0254 184.74 27.6717 179.834 27.6717C174.313 27.6717 171.312 31.2031 170.822 34.6804C170.394 37.8486 172.719 40.955 177.874 40.955Z" fill="#5BA6D8"/>
<path d="M84.1981 20.7403C83.3817 7.90511 63.8736 -1.31363 40.6334 0.154568C17.3854 1.61504 -0.793091 13.2061 0.0233094 26.0412C0.505374 33.6063 7.48754 39.9118 17.8986 43.5205L21.9884 76.7714L53.3848 43.7987C72.5896 40.4837 84.9212 32.0299 84.1981 20.7403Z" fill="#5BA6D8"/>
<path d="M37.2745 54.8179L34.8875 36.3109C26.8557 33.9772 20.3012 29.9822 18.3418 22.9966C15.4261 12.6033 27.0501 4.32732 46.3793 3.51595C62.6296 2.83594 79.8128 10.8106 80.9247 18.9166C82.5433 30.678 66.6901 37.9191 53.5 40.3524C53.0671 40.4322 52.6371 40.5069 52.2107 40.5764L37.2745 54.8179Z" fill="white"/>
</g>
<defs>
<clipPath id="clip0_2_10">
<rect width="194" height="78" fill="white"/>
</clipPath>
</defs>
</svg>
