<?xml version="1.0" encoding="utf-8"?>
<svg version="1.2" baseProfile="tiny" id="a" x="0px" y="0px" viewBox="0 0 18 36" overflow="visible" xmlns="http://www.w3.org/2000/svg">
  <g transform="matrix(1, 0, 0, 1, 0, 18)">
    <path fill="none" stroke="#FE938C" stroke-width="2" d="M 9 10.7 C 10.1 10.7 11 9.8 11 8.8 C 11 7.8 10.1 6.9 9 6.9 C 7.9 6.9 7 7.7 7 8.7 C 7 9.7 7.9 10.7 9 10.7 Z"/>
    <path fill="none" stroke="#FE938C" stroke-width="2" d="M 9 14.4 C 15.1 14.5 17 8.8 17 8.8 C 17 8.8 15.2 3 9 3 C 2.8 3 1 8.8 1 8.8 C 1 8.8 2.9 14.3 9 14.4 Z"/>
  </g>
  <path fill="none" stroke="#FE938C" stroke-width="2" stroke-linecap="round" d="M 16 15 L 3.5 2.5 M 7.5 7.5 C 7.2 7.8 7 8.2 7 8.7 C 7 9.8 7.9 10.7 9 10.7 C 9.5 10.7 10 10.5 10.3 10.2 M 16 10.7 C 16.7 9.7 17 8.8 17 8.8 C 17 8.8 15.2 3 9 3 C 8.6 3 8.3 3 8 3 M 13.5 13.2 C 12.4 13.9 10.9 14.4 9 14.4 C 2.9 14.3 1 8.8 1 8.8 C 1 8.8 1.9 6 4.5 4.3"/>
</svg>