<svg width="32" height="32" viewBox="0 0 32 32" fill="none" xmlns="http://www.w3.org/2000/svg">
<path d="M11 21L11 22H11V21ZM21 21V22H21L21 21ZM2 16C2 8.26801 8.26801 2 16 2V0C7.16344 0 0 7.16344 0 16H2ZM16 2C23.732 2 30 8.26801 30 16H32C32 7.16344 24.8366 0 16 0V2ZM16 30C8.26801 30 2 23.732 2 16H0C0 24.8366 7.16344 32 16 32V30ZM30 16C30 23.732 23.732 30 16 30V32C24.8366 32 32 24.8366 32 16H30ZM20 11C20 13.2091 18.2091 15 16 15V17C19.3137 17 22 14.3137 22 11H20ZM16 15C13.7909 15 12 13.2091 12 11H10C10 14.3137 12.6863 17 16 17V15ZM12 11C12 8.79086 13.7909 7 16 7V5C12.6863 5 10 7.68629 10 11H12ZM16 7C18.2091 7 20 8.79086 20 11H22C22 7.68629 19.3137 5 16 5V7ZM11 22H21V20H11V22ZM21 22C22.1058 22 23.0856 22.6262 23.831 23.662C24.5809 24.704 25 26.0458 25 27.1805H27C27 25.6156 26.4427 23.8671 25.4543 22.4938C24.4615 21.1142 22.9413 20 21 20L21 22ZM7 27.1805C7 26.0458 7.41909 24.704 8.16899 23.662C8.91439 22.6262 9.8942 22 11 22L11 20C9.05866 20 7.53847 21.1142 6.54565 22.4938C5.55734 23.8671 5 25.6156 5 27.1805H7Z" fill="#FE938C"/>
</svg>
